<svg width="20" height="20" viewBox="0 0 20 20" fill="none" xmlns="http://www.w3.org/2000/svg">
<g clip-path="url(#clip0_2002_8813)">
<path d="M19.5161 10.1878C19.5161 9.36841 19.4497 8.77047 19.306 8.15039H9.95898V11.8487H15.4454C15.3349 12.7678 14.7376 14.1519 13.4101 15.082L13.3915 15.2058L16.3469 17.4976L16.5516 17.5181C18.4321 15.7796 19.5161 13.2218 19.5161 10.1878Z" fill="#4285F4"/>
<path d="M9.95597 19.9322C12.6439 19.9322 14.9004 19.0463 16.5486 17.5183L13.4071 15.0822C12.5665 15.669 11.4382 16.0787 9.95597 16.0787C7.32335 16.0787 5.08895 14.3403 4.29244 11.9375L4.17569 11.9474L1.10269 14.3281L1.0625 14.4399C2.69959 17.6954 6.06229 19.9322 9.95597 19.9322Z" fill="#34A853"/>
<path d="M4.29182 11.9363C4.08166 11.3163 3.96003 10.6518 3.96003 9.96534C3.96003 9.27878 4.08166 8.61443 4.28076 7.99435L4.2752 7.86229L1.16368 5.44336L1.06188 5.49183C0.387157 6.84275 0 8.35977 0 9.96534C0 11.5709 0.387157 13.0879 1.06188 14.4388L4.29182 11.9363Z" fill="#FBBC05"/>
<path d="M9.95597 3.85336C11.8253 3.85336 13.0863 4.66168 13.8054 5.33718L16.615 2.59107C14.8894 0.985496 12.6439 0 9.95597 0C6.06229 0 2.69959 2.23672 1.0625 5.49214L4.28139 7.99466C5.08895 5.59183 7.32335 3.85336 9.95597 3.85336Z" fill="#EB4335"/>
</g>
<defs>
<clipPath id="clip0_2002_8813">
<rect width="19.5238" height="20" fill="white"/>
</clipPath>
</defs>
</svg>
